<svg xmlns="http://www.w3.org/2000/svg" width="1200" height="800" viewBox="0 0 1200 800">
  <defs>
    <linearGradient id="bg" x1="0" y1="0" x2="1" y2="1">
      <stop offset="0" stop-color="#052e2b"/>
      <stop offset="1" stop-color="#11998e"/>
    </linearGradient>
    <linearGradient id="accent" x1="0" y1="0" x2="1" y2="0">
      <stop offset="0" stop-color="#34d399" stop-opacity="0.95"/>
      <stop offset="1" stop-color="#a7f3d0" stop-opacity="0.95"/>
    </linearGradient>
  </defs>
  <rect width="1200" height="800" fill="url(#bg)"/>
  <rect x="740" y="120" width="360" height="520" rx="28" fill="#ffffff" opacity="0.10"/>
  <g fill="#ffffff" opacity="0.18">
    <path d="M860 190c0-44 36-80 80-80s80 36 80 80-36 80-80 80-80-36-80-80z"/>
    <path d="M820 420c0-88 72-160 160-160s160 72 160 160-72 160-160 160-160-72-160-160z"/>
  </g>
  <rect x="120" y="560" width="960" height="16" rx="8" fill="url(#accent)"/>
  <g fill="#ffffff">
    <text x="120" y="220" font-size="58" font-family="Arial, sans-serif" font-weight="700">زيوت وفلاتر</text>
    <text x="120" y="290" font-size="34" font-family="Arial, sans-serif" opacity="0.9">اختيار احترافي لحماية المحرك</text>
    <g opacity="0.95">
      <rect x="120" y="340" width="410" height="70" rx="35" fill="#ffffff"/>
      <text x="170" y="388" font-size="28" font-family="Arial, sans-serif" font-weight="700" fill="#0f766e">اكتشف المجموعة</text>
    </g>
    <g opacity="0.9">
      <text x="780" y="690" font-size="26" font-family="Arial, sans-serif" fill="#ffffff" opacity="0.85">جودة عالية • سعر منافس • توصيل سريع</text>
    </g>
  </g>
</svg>
