<svg xmlns="http://www.w3.org/2000/svg" width="1200" height="800" viewBox="0 0 1200 800">
  <defs>
    <linearGradient id="bg" x1="0" y1="0" x2="1" y2="1">
      <stop offset="0" stop-color="#2b0b0b"/>
      <stop offset="1" stop-color="#f12711"/>
    </linearGradient>
    <linearGradient id="accent" x1="0" y1="0" x2="1" y2="0">
      <stop offset="0" stop-color="#f59e0b" stop-opacity="0.95"/>
      <stop offset="1" stop-color="#fde68a" stop-opacity="0.95"/>
    </linearGradient>
  </defs>
  <rect width="1200" height="800" fill="url(#bg)"/>
  <g opacity="0.12" fill="#ffffff">
    <path d="M200 620c220-220 420-220 600 0 60 70 140 120 240 140v120H120V660c30-10 55-22 80-40z"/>
  </g>
  <rect x="120" y="560" width="960" height="16" rx="8" fill="url(#accent)"/>
  <g fill="#ffffff">
    <text x="120" y="220" font-size="58" font-family="Arial, sans-serif" font-weight="700">التوصيل السريع</text>
    <text x="120" y="290" font-size="34" font-family="Arial, sans-serif" opacity="0.9">اطلب الآن واستلم خلال 24 ساعة</text>
    <g opacity="0.95">
      <rect x="120" y="340" width="360" height="70" rx="35" fill="#ffffff"/>
      <text x="170" y="388" font-size="28" font-family="Arial, sans-serif" font-weight="700" fill="#b45309">اعرف المزيد</text>
    </g>
  </g>
  <g transform="translate(720 190)" opacity="0.95">
    <rect x="0" y="0" width="380" height="380" rx="40" fill="#ffffff" opacity="0.10"/>
    <path d="M68 220h220c22 0 40-18 40-40v-80c0-22-18-40-40-40H168l-40-40h-60c-18 0-32 14-32 32v168c0 22 18 40 40 40z" fill="#ffffff" opacity="0.22"/>
    <path d="M110 310c0-44 36-80 80-80h40c44 0 80 36 80 80" fill="none" stroke="#ffffff" stroke-width="10" opacity="0.55"/>
    <circle cx="170" cy="310" r="18" fill="#ffffff" opacity="0.75"/>
    <circle cx="270" cy="310" r="18" fill="#ffffff" opacity="0.75"/>
    <path d="M220 120l70 40-70 40z" fill="#ffffff" opacity="0.35"/>
  </g>
</svg>
