<svg xmlns="http://www.w3.org/2000/svg" width="1200" height="800" viewBox="0 0 1200 800">
  <defs>
    <linearGradient id="bg" x1="0" y1="0" x2="1" y2="1">
      <stop offset="0" stop-color="#0b1220"/>
      <stop offset="1" stop-color="#1e3c72"/>
    </linearGradient>
    <linearGradient id="accent" x1="0" y1="0" x2="1" y2="0">
      <stop offset="0" stop-color="#38bdf8" stop-opacity="0.9"/>
      <stop offset="1" stop-color="#a78bfa" stop-opacity="0.9"/>
    </linearGradient>
  </defs>
  <rect width="1200" height="800" fill="url(#bg)"/>
  <circle cx="960" cy="180" r="180" fill="#ffffff" opacity="0.08"/>
  <circle cx="1020" cy="240" r="120" fill="#ffffff" opacity="0.06"/>
  <circle cx="880" cy="260" r="90" fill="#ffffff" opacity="0.05"/>
  <rect x="120" y="560" width="960" height="16" rx="8" fill="url(#accent)" opacity="0.9"/>
  <g fill="#ffffff" opacity="0.12">
    <path d="M140 650c70-120 180-160 280-90 90 60 160 40 220-10 90-70 200-40 260 60 60 100 120 120 200 60v120H140z"/>
  </g>
  <g fill="#ffffff">
    <text x="120" y="220" font-size="58" font-family="Arial, sans-serif" font-weight="700">عروض الصيف</text>
    <text x="120" y="290" font-size="34" font-family="Arial, sans-serif" opacity="0.9">خصومات قوية على قطع الغيار الأصلية</text>
    <g opacity="0.9">
      <rect x="120" y="340" width="340" height="70" rx="35" fill="#ffffff"/>
      <text x="170" y="388" font-size="28" font-family="Arial, sans-serif" font-weight="700" fill="#1e3c72">تسوق الآن</text>
    </g>
    <g opacity="0.9">
      <circle cx="980" cy="520" r="120" fill="#ffffff" opacity="0.12"/>
      <text x="920" y="540" font-size="56" font-family="Arial, sans-serif" font-weight="800" fill="#ffffff">-50%</text>
    </g>
  </g>
</svg>
